<svg xmlns="http://www.w3.org/2000/svg" width="218.48" height="38.212" viewBox="0 0 218.48 38.212">
  <g id="logo_pagogo" transform="translate(8 0.04)">
    <path id="Path_663" data-name="Path 663" d="M347.2,5.144a.478.478,0,0,1,.444-.444h.111a.4.4,0,0,1,.389.222L349.7,7.364l1.554-2.442a.419.419,0,0,1,.389-.222h.111a.438.438,0,0,1,.444.444V9.418a.444.444,0,1,1-.888,0V6.31L350.087,8.2a.419.419,0,0,1-.389.222.562.562,0,0,1-.389-.222l-1.221-1.832V9.418a.478.478,0,0,1-.444.444.438.438,0,0,1-.444-.444Z" transform="translate(-162.476 -2.109)" fill="#123864"/>
    <path id="Path_664" data-name="Path 664" d="M357.7,8.385h0c0-.833.666-1.277,1.61-1.277a3,3,0,0,1,1.055.167V7.219c0-.555-.333-.833-.944-.833a1.854,1.854,0,0,0-.833.167h-.111a.379.379,0,0,1-.389-.389.375.375,0,0,1,.222-.333,3.991,3.991,0,0,1,1.221-.222,1.776,1.776,0,0,1,1.277.444,1.564,1.564,0,0,1,.389,1.166V9.107a.438.438,0,0,1-.444.444.4.4,0,0,1-.444-.389V9a1.545,1.545,0,0,1-1.277.555A1.212,1.212,0,0,1,357.7,8.385Zm2.664-.278V7.83a1.946,1.946,0,0,0-.888-.167c-.555,0-.888.222-.888.666h0c0,.389.333.555.777.555A.83.83,0,0,0,360.364,8.108ZM359.31,5.055c0-.056.056-.111.056-.167l.389-.666A.456.456,0,0,1,360.087,4c.222,0,.5.167.5.278a.421.421,0,0,1-.111.222l-.5.444a.678.678,0,0,1-.5.222C359.421,5.166,359.31,5.11,359.31,5.055Z" transform="translate(-167.147 -1.797)" fill="#123864"/>
    <path id="Path_665" data-name="Path 665" d="M365.267,10.442a.336.336,0,0,1-.167-.333.32.32,0,0,1,.333-.333.2.2,0,0,1,.166.056,2.433,2.433,0,0,0,1.11.389c.389,0,.611-.167.611-.389h0c0-.278-.389-.389-.833-.555-.555-.167-1.221-.389-1.221-1.11h0A1.236,1.236,0,0,1,366.654,7a2.531,2.531,0,0,1,1.221.333.375.375,0,0,1,.222.333c0,.222-.166.333-.389.333a.2.2,0,0,1-.166-.056,2.04,2.04,0,0,0-.888-.278c-.333,0-.555.167-.555.389h0c0,.278.389.389.888.555.555.167,1.221.444,1.221,1.11h0c0,.833-.611,1.221-1.443,1.221A3.43,3.43,0,0,1,365.267,10.442Z" transform="translate(-170.44 -3.132)" fill="#123864"/>
    <path id="Path_666" data-name="Path 666" d="M350.7,25.063a.478.478,0,0,1-.444.444.438.438,0,0,1-.444-.444V23.675a1.544,1.544,0,0,1-1.332.722,1.848,1.848,0,0,1-1.776-2h0a1.848,1.848,0,0,1,1.776-2,1.73,1.73,0,0,1,1.332.666v-.222a.444.444,0,0,1,.888,0ZM347.588,22.4h0a1.111,1.111,0,0,0,1.11,1.221,1.142,1.142,0,0,0,1.11-1.221h0a1.142,1.142,0,0,0-1.11-1.221C348.088,21.122,347.588,21.621,347.588,22.4Z" transform="translate(-162.253 -9.094)" fill="#123864"/>
    <path id="Path_667" data-name="Path 667" d="M358.9,23.853a.478.478,0,0,1-.444.444.438.438,0,0,1-.444-.444V23.63A1.412,1.412,0,0,1,355.4,22.8V20.744a.444.444,0,1,1,.888,0V22.52c0,.611.278.944.833.944a.861.861,0,0,0,.888-.944V20.744a.444.444,0,1,1,.888,0v3.108Z" transform="translate(-166.124 -9.049)" fill="#123864"/>
    <path id="Path_668" data-name="Path 668" d="M365,24.4a1.956,1.956,0,0,1-2-2h0a1.9,1.9,0,0,1,1.887-2,1.819,1.819,0,0,1,1.832,1.887.429.429,0,0,1-.388.444h-2.387a1.13,1.13,0,0,0,1.11,1,1.172,1.172,0,0,0,.888-.333c.055-.056.111-.056.222-.056a.32.32,0,0,1,.333.333.424.424,0,0,1-.111.278A2.422,2.422,0,0,1,365,24.4Zm.888-2.276a1,1,0,0,0-2,0Z" transform="translate(-169.505 -9.094)" fill="#123864"/>
    <path id="Path_669" data-name="Path 669" d="M346.667,37.542a.336.336,0,0,1-.166-.333.32.32,0,0,1,.333-.333.2.2,0,0,1,.167.056,2.432,2.432,0,0,0,1.11.389c.389,0,.611-.167.611-.389h0c0-.278-.389-.389-.833-.555-.555-.167-1.221-.389-1.221-1.11h0a1.236,1.236,0,0,1,1.388-1.166,2.531,2.531,0,0,1,1.221.333.375.375,0,0,1,.222.333c0,.222-.167.333-.389.333a.2.2,0,0,1-.167-.056,2.04,2.04,0,0,0-.888-.278c-.333,0-.555.167-.555.389h0c0,.278.389.389.888.555.555.167,1.221.444,1.221,1.11h0c0,.833-.611,1.221-1.443,1.221A3.431,3.431,0,0,1,346.667,37.542Z" transform="translate(-162.164 -15.189)" fill="#123864"/>
    <path id="Path_670" data-name="Path 670" d="M354.9,37.9a1.956,1.956,0,0,1-2-2h0a1.9,1.9,0,0,1,1.887-2,1.819,1.819,0,0,1,1.832,1.887.429.429,0,0,1-.389.444h-2.387a1.13,1.13,0,0,0,1.11,1,1.172,1.172,0,0,0,.888-.333c.055-.056.111-.056.222-.056a.32.32,0,0,1,.333.333.424.424,0,0,1-.111.278A2.077,2.077,0,0,1,354.9,37.9Zm.888-2.276a1,1,0,0,0-2,0Z" transform="translate(-165.012 -15.1)" fill="#123864"/>
    <path id="Path_671" data-name="Path 671" d="M361,34.4a.438.438,0,0,1,.444-.444.478.478,0,0,1,.444.444v.167a1.426,1.426,0,0,1,1.221-.666,1.317,1.317,0,0,1,1.388,1.5v2.054a.444.444,0,1,1-.888,0V35.621c0-.611-.278-.944-.833-.944a.861.861,0,0,0-.888.944V37.4a.478.478,0,0,1-.444.444A.438.438,0,0,1,361,37.4v-3Z" transform="translate(-168.615 -15.1)" fill="#123864"/>
    <path id="Path_672" data-name="Path 672" d="M368.5,35.9h0a2.006,2.006,0,0,1,3.33-1.5.469.469,0,0,1,.111.333.379.379,0,0,1-.389.389.424.424,0,0,1-.278-.111,1.4,1.4,0,0,0-.833-.333,1.141,1.141,0,0,0-1.11,1.221h0a1.185,1.185,0,0,0,1.166,1.221,1.13,1.13,0,0,0,.833-.333.289.289,0,0,1,.222-.111.379.379,0,0,1,.389.389.424.424,0,0,1-.111.278,1.876,1.876,0,0,1-1.388.555A1.944,1.944,0,0,1,368.5,35.9Z" transform="translate(-171.952 -15.1)" fill="#123864"/>
    <path id="Path_673" data-name="Path 673" d="M376.1,31.844a.5.5,0,0,1,1,0V31.9a.453.453,0,0,1-.5.444c-.277-.056-.5-.222-.5-.5Zm.055,1.443a.438.438,0,0,1,.444-.444.478.478,0,0,1,.444.444V36.34a.478.478,0,0,1-.444.444.438.438,0,0,1-.444-.444Z" transform="translate(-175.334 -13.988)" fill="#123864"/>
    <path id="Path_674" data-name="Path 674" d="M379.7,31.744a.438.438,0,0,1,.444-.444.478.478,0,0,1,.444.444v4.5a.478.478,0,0,1-.444.444.438.438,0,0,1-.444-.444Z" transform="translate(-176.935 -13.944)" fill="#123864"/>
    <path id="Path_675" data-name="Path 675" d="M383.2,31.744a.438.438,0,0,1,.444-.444.478.478,0,0,1,.444.444v4.5a.478.478,0,0,1-.444.444.438.438,0,0,1-.444-.444Z" transform="translate(-178.493 -13.944)" fill="#123864"/>
    <path id="Path_676" data-name="Path 676" d="M386.2,35.9h0a2.055,2.055,0,0,1,4.108,0h0a2.055,2.055,0,0,1-4.108,0Zm3.219,0h0a1.235,1.235,0,0,0-1.166-1.277,1.152,1.152,0,0,0-1.166,1.221h0a1.185,1.185,0,0,0,1.166,1.221A1.079,1.079,0,0,0,389.42,35.9Z" transform="translate(-179.827 -15.1)" fill="#123864"/>
    <path id="Path_677" data-name="Path 677" d="M118.744,26.089a13.044,13.044,0,1,1,13.044-13.044A13.029,13.029,0,0,1,118.744,26.089Zm0-21.759a8.715,8.715,0,1,0,8.77,8.715A8.73,8.73,0,0,0,118.744,4.33Z" transform="translate(-55.028 -0.018)" fill="#123864"/>
    <path id="Path_678" data-name="Path 678" d="M121.709,56.565a13.222,13.222,0,0,1-8.6-3.219,2.164,2.164,0,0,1,2.831-3.275,8.868,8.868,0,0,0,5.773,2.165,8.722,8.722,0,0,0,8.16-5.551,8.969,8.969,0,0,0,.611-3.219,2.165,2.165,0,1,1,4.33,0,12.576,12.576,0,0,1-.888,4.774A13.089,13.089,0,0,1,121.709,56.565Z" transform="translate(-57.993 -18.393)" fill="#123864"/>
    <path id="Path_679" data-name="Path 679" d="M129.2,64.6" transform="translate(-65.483 -28.759)" fill="#123864"/>
    <path id="Path_680" data-name="Path 680" d="M129.2,30.6" transform="translate(-65.483 -13.632)" fill="#123864"/>
    <path id="Path_681" data-name="Path 681" d="M171.644,26.089a13.044,13.044,0,1,1,13.044-13.044A13.029,13.029,0,0,1,171.644,26.089Zm0-21.759a8.715,8.715,0,1,0,8.715,8.715A8.73,8.73,0,0,0,171.644,4.33Z" transform="translate(-78.564 -0.018)" fill="#009fe3"/>
    <path id="Path_682" data-name="Path 682" d="M247.444,26.089a13.044,13.044,0,1,1,13.044-13.044A13.029,13.029,0,0,1,247.444,26.089Zm0-21.759a8.715,8.715,0,1,0,8.715,8.715A8.73,8.73,0,0,0,247.444,4.33Z" transform="translate(-112.289 -0.018)" fill="#123864"/>
    <path id="Path_683" data-name="Path 683" d="M250.409,56.565a13.222,13.222,0,0,1-8.6-3.219,2.164,2.164,0,1,1,2.831-3.275,8.868,8.868,0,0,0,5.773,2.165,8.722,8.722,0,0,0,8.16-5.551,8.968,8.968,0,0,0,.611-3.219,2.165,2.165,0,1,1,4.33,0,12.577,12.577,0,0,1-.888,4.774A13.089,13.089,0,0,1,250.409,56.565Z" transform="translate(-115.254 -18.393)" fill="#123864"/>
    <path id="Path_684" data-name="Path 684" d="M257.9,64.6" transform="translate(-122.744 -28.759)" fill="#123864"/>
    <path id="Path_685" data-name="Path 685" d="M257.9,30.6" transform="translate(-122.744 -13.632)" fill="#123864"/>
    <path id="Path_686" data-name="Path 686" d="M300.245,26.089a13.044,13.044,0,1,1,13.044-13.044A13.029,13.029,0,0,1,300.245,26.089Zm0-21.759a8.715,8.715,0,1,0,8.715,8.715A8.73,8.73,0,0,0,300.245,4.33Z" transform="translate(-135.78 -0.018)" fill="#ffd500"/>
    <path id="Path_687" data-name="Path 687" d="M76.536.066a2.133,2.133,0,0,0-1.665,1.388h0s-.611,1.388-2.387.333h0A12.725,12.725,0,0,0,64.99.066,13.033,13.033,0,0,0,65.934,26.1a12.747,12.747,0,0,0,6.494-1.721.054.054,0,0,0,.056-.056c1.5-.888,2.109-.056,2.331.222a2.156,2.156,0,0,0,4.219-.611V2.175A2.179,2.179,0,0,0,76.536.066ZM57.164,13.055a8.715,8.715,0,1,1,8.77,8.77A8.73,8.73,0,0,1,57.164,13.055Z" transform="translate(-31.526 -0.028)" fill="#123864"/>
    <path id="Path_688" data-name="Path 688" d="M12.212-.018A13.227,13.227,0,0,0,0,13.249V31.678A2.262,2.262,0,0,0,1.832,33.9a2.183,2.183,0,0,0,2.5-2.109V24.795c.056-.167.333-1.443,2-.555.056,0,.111.056.167.056a13.554,13.554,0,0,0,7.6,1.776A13.079,13.079,0,0,0,12.212-.018ZM21.759,13.97a8.683,8.683,0,0,1-7.716,7.716,8.771,8.771,0,0,1-9.658-9.658A8.683,8.683,0,0,1,12.1,4.312,8.821,8.821,0,0,1,21.759,13.97Z" transform="translate(-8 0)" fill="#123864"/>
    <circle id="Ellipse_40" data-name="Ellipse 40" cx="2.165" cy="2.165" r="2.165" transform="translate(112.342 10.862)" fill="#123864"/>
  </g>
</svg>
